<mxfile host="app.diagrams.net" modified="2023-06-16T19:00:26.799Z" agent="Mozilla/5.0 (Windows NT 10.0; Win64; x64) AppleWebKit/537.36 (KHTML, like Gecko) Chrome/114.0.0.0 Safari/537.36 Edg/114.0.1823.43" etag="35-CZByfqecWlH62E7Nm" version="21.3.8" type="github">
  <diagram name="Página-1" id="l5Eirs2qCnSo72D6QEz-">
    <mxGraphModel dx="344" dy="202" grid="1" gridSize="10" guides="1" tooltips="1" connect="1" arrows="1" fold="1" page="1" pageScale="1" pageWidth="827" pageHeight="1169" math="0" shadow="0">
      <root>
        <mxCell id="0" />
        <mxCell id="1" parent="0" />
        <mxCell id="voO-R-jOmLPzby_aq_sF-46" value="" style="whiteSpace=wrap;html=1;aspect=fixed;strokeWidth=1;fontSize=14;fillColor=none;gradientColor=none;movable=1;resizable=1;rotatable=1;deletable=1;editable=1;connectable=1;" parent="1" vertex="1">
          <mxGeometry x="150" y="100" width="1030" height="1030" as="geometry" />
        </mxCell>
        <mxCell id="3FhvJwbir3W2ildQRlmO-1" value="Usuário não autenticado" style="shape=umlActor;verticalLabelPosition=bottom;verticalAlign=top;html=1;outlineConnect=0;" parent="1" vertex="1">
          <mxGeometry x="50" y="410" width="50" height="100" as="geometry" />
        </mxCell>
        <mxCell id="3FhvJwbir3W2ildQRlmO-3" value="Cadastrar cona" style="ellipse;whiteSpace=wrap;html=1;fillColor=#dae8fc;strokeColor=default;" parent="1" vertex="1">
          <mxGeometry x="180" y="300" width="180" height="80" as="geometry" />
        </mxCell>
        <mxCell id="3FhvJwbir3W2ildQRlmO-4" value="Realizar login" style="ellipse;whiteSpace=wrap;html=1;fillColor=#dae8fc;strokeColor=default;" parent="1" vertex="1">
          <mxGeometry x="430" y="300" width="180" height="80" as="geometry" />
        </mxCell>
        <mxCell id="3FhvJwbir3W2ildQRlmO-12" value="Acessar menu de apartamentos" style="ellipse;whiteSpace=wrap;html=1;fillColor=#dae8fc;strokeColor=default;" parent="1" vertex="1">
          <mxGeometry x="170" y="410" width="180" height="80" as="geometry" />
        </mxCell>
        <mxCell id="3FhvJwbir3W2ildQRlmO-14" value="Reservar apartamento" style="ellipse;whiteSpace=wrap;html=1;fillColor=#dae8fc;strokeColor=default;" parent="1" vertex="1">
          <mxGeometry x="420" y="410" width="220" height="80" as="geometry" />
        </mxCell>
        <mxCell id="3FhvJwbir3W2ildQRlmO-21" value="" style="endArrow=none;html=1;rounded=0;" parent="1" source="3FhvJwbir3W2ildQRlmO-1" target="3FhvJwbir3W2ildQRlmO-3" edge="1">
          <mxGeometry width="50" height="50" relative="1" as="geometry">
            <mxPoint x="120" y="180" as="sourcePoint" />
            <mxPoint x="290" y="140" as="targetPoint" />
          </mxGeometry>
        </mxCell>
        <mxCell id="3FhvJwbir3W2ildQRlmO-22" value="" style="endArrow=none;html=1;rounded=0;" parent="1" source="3FhvJwbir3W2ildQRlmO-1" target="3FhvJwbir3W2ildQRlmO-12" edge="1">
          <mxGeometry width="50" height="50" relative="1" as="geometry">
            <mxPoint x="120" y="234.5454545454545" as="sourcePoint" />
            <mxPoint x="317.4629148574795" y="112.47747081537636" as="targetPoint" />
          </mxGeometry>
        </mxCell>
        <mxCell id="3FhvJwbir3W2ildQRlmO-23" value="" style="endArrow=none;html=1;rounded=0;entryX=0;entryY=0.5;entryDx=0;entryDy=0;exitX=1;exitY=1;exitDx=0;exitDy=0;exitPerimeter=0;" parent="1" source="voO-R-jOmLPzby_aq_sF-14" target="3FhvJwbir3W2ildQRlmO-31" edge="1">
          <mxGeometry width="50" height="50" relative="1" as="geometry">
            <mxPoint x="110" y="780" as="sourcePoint" />
            <mxPoint x="220" y="330" as="targetPoint" />
          </mxGeometry>
        </mxCell>
        <mxCell id="3FhvJwbir3W2ildQRlmO-26" value="&amp;lt;&amp;lt;extend&amp;gt;&amp;gt;" style="html=1;verticalAlign=bottom;labelBackgroundColor=none;endArrow=open;endFill=0;dashed=1;rounded=0;exitX=1;exitY=0.5;exitDx=0;exitDy=0;" parent="1" source="3FhvJwbir3W2ildQRlmO-12" target="3FhvJwbir3W2ildQRlmO-14" edge="1">
          <mxGeometry width="160" relative="1" as="geometry">
            <mxPoint x="414" y="330" as="sourcePoint" />
            <mxPoint x="550" y="250" as="targetPoint" />
            <mxPoint as="offset" />
          </mxGeometry>
        </mxCell>
        <mxCell id="3FhvJwbir3W2ildQRlmO-27" value="Acessar&amp;nbsp; plataforma" style="ellipse;whiteSpace=wrap;html=1;fillColor=#dae8fc;strokeColor=default;" parent="1" vertex="1">
          <mxGeometry x="690" y="300" width="180" height="80" as="geometry" />
        </mxCell>
        <mxCell id="3FhvJwbir3W2ildQRlmO-31" value="Entrar em contato com Sindico" style="ellipse;whiteSpace=wrap;html=1;fillColor=#f8cecc;strokeColor=default;" parent="1" vertex="1">
          <mxGeometry x="220" y="830" width="180" height="80" as="geometry" />
        </mxCell>
        <mxCell id="3FhvJwbir3W2ildQRlmO-32" value="&amp;lt;&amp;lt;extend&amp;gt;&amp;gt;" style="html=1;verticalAlign=bottom;labelBackgroundColor=none;endArrow=open;endFill=0;dashed=1;rounded=0;exitX=1;exitY=0.5;exitDx=0;exitDy=0;entryX=0;entryY=0.5;entryDx=0;entryDy=0;" parent="1" source="3FhvJwbir3W2ildQRlmO-14" target="3FhvJwbir3W2ildQRlmO-33" edge="1">
          <mxGeometry width="160" relative="1" as="geometry">
            <mxPoint x="810" y="280" as="sourcePoint" />
            <mxPoint x="910" y="250" as="targetPoint" />
          </mxGeometry>
        </mxCell>
        <mxCell id="3FhvJwbir3W2ildQRlmO-33" value="Marcar Visita" style="ellipse;whiteSpace=wrap;html=1;fillColor=#dae8fc;strokeColor=default;" parent="1" vertex="1">
          <mxGeometry x="700" y="410" width="180" height="80" as="geometry" />
        </mxCell>
        <mxCell id="IhfIyA9X6iFTCucicmQ7-1" value="Sindico" style="shape=umlActor;verticalLabelPosition=bottom;verticalAlign=top;html=1;outlineConnect=0;" parent="1" vertex="1">
          <mxGeometry x="1390" y="600" width="30" height="60" as="geometry" />
        </mxCell>
        <mxCell id="IhfIyA9X6iFTCucicmQ7-4" value="" style="endArrow=none;html=1;rounded=0;entryX=0;entryY=0.3333333333333333;entryDx=0;entryDy=0;entryPerimeter=0;exitX=1;exitY=0.5;exitDx=0;exitDy=0;" parent="1" source="IhfIyA9X6iFTCucicmQ7-5" target="IhfIyA9X6iFTCucicmQ7-1" edge="1">
          <mxGeometry width="50" height="50" relative="1" as="geometry">
            <mxPoint x="1860" y="110" as="sourcePoint" />
            <mxPoint x="1957.3688356334098" y="118.95736832309183" as="targetPoint" />
          </mxGeometry>
        </mxCell>
        <mxCell id="IhfIyA9X6iFTCucicmQ7-5" value="Cadastrar morador" style="ellipse;whiteSpace=wrap;html=1;fillColor=#fff2cc;strokeColor=default;" parent="1" vertex="1">
          <mxGeometry x="990" y="505" width="180" height="80" as="geometry" />
        </mxCell>
        <mxCell id="IhfIyA9X6iFTCucicmQ7-6" value="" style="endArrow=none;html=1;rounded=0;exitX=1;exitY=0.5;exitDx=0;exitDy=0;entryX=0.75;entryY=0.1;entryDx=0;entryDy=0;entryPerimeter=0;" parent="1" source="IhfIyA9X6iFTCucicmQ7-7" target="IhfIyA9X6iFTCucicmQ7-1" edge="1">
          <mxGeometry width="50" height="50" relative="1" as="geometry">
            <mxPoint x="1830" y="230" as="sourcePoint" />
            <mxPoint x="2010" y="290" as="targetPoint" />
          </mxGeometry>
        </mxCell>
        <mxCell id="IhfIyA9X6iFTCucicmQ7-7" value="Gerenciar finanças" style="ellipse;whiteSpace=wrap;html=1;fillColor=#fff2cc;strokeColor=default;" parent="1" vertex="1">
          <mxGeometry x="980" y="290" width="180" height="80" as="geometry" />
        </mxCell>
        <mxCell id="IhfIyA9X6iFTCucicmQ7-8" value="" style="endArrow=none;html=1;rounded=0;entryX=0.5;entryY=0.5;entryDx=0;entryDy=0;entryPerimeter=0;" parent="1" source="IhfIyA9X6iFTCucicmQ7-9" target="IhfIyA9X6iFTCucicmQ7-1" edge="1">
          <mxGeometry width="50" height="50" relative="1" as="geometry">
            <mxPoint x="1880" y="350" as="sourcePoint" />
            <mxPoint x="2040" y="180" as="targetPoint" />
          </mxGeometry>
        </mxCell>
        <mxCell id="IhfIyA9X6iFTCucicmQ7-9" value="Controlar acesso de Visitante" style="ellipse;whiteSpace=wrap;html=1;fillColor=#fff2cc;strokeColor=default;" parent="1" vertex="1">
          <mxGeometry x="680" y="550" width="180" height="80" as="geometry" />
        </mxCell>
        <mxCell id="voO-R-jOmLPzby_aq_sF-1" value="" style="endArrow=none;html=1;rounded=0;entryX=0;entryY=1;entryDx=0;entryDy=0;entryPerimeter=0;exitX=0.987;exitY=0.349;exitDx=0;exitDy=0;exitPerimeter=0;" parent="1" source="voO-R-jOmLPzby_aq_sF-2" target="IhfIyA9X6iFTCucicmQ7-1" edge="1">
          <mxGeometry width="50" height="50" relative="1" as="geometry">
            <mxPoint x="2000" y="350" as="sourcePoint" />
            <mxPoint x="2100" y="198.13559322033905" as="targetPoint" />
          </mxGeometry>
        </mxCell>
        <mxCell id="voO-R-jOmLPzby_aq_sF-2" value="Controlar Reserva áreas Comuns" style="ellipse;whiteSpace=wrap;html=1;fillColor=#fff2cc;strokeColor=default;" parent="1" vertex="1">
          <mxGeometry x="680" y="650" width="180" height="80" as="geometry" />
        </mxCell>
        <mxCell id="voO-R-jOmLPzby_aq_sF-5" value="SITE DE GERENCIAMENTO RESIDENCIAL" style="text;html=1;align=center;verticalAlign=middle;resizable=0;points=[];autosize=1;strokeColor=none;fillColor=none;strokeWidth=5;fontSize=24;" parent="1" vertex="1">
          <mxGeometry x="440" y="120" width="500" height="40" as="geometry" />
        </mxCell>
        <mxCell id="voO-R-jOmLPzby_aq_sF-11" value="&amp;lt;&amp;lt;include&amp;gt;&amp;gt;" style="html=1;verticalAlign=bottom;labelBackgroundColor=none;endArrow=open;endFill=0;dashed=1;rounded=0;fontSize=11;exitX=1;exitY=0.5;exitDx=0;exitDy=0;entryX=0;entryY=0.5;entryDx=0;entryDy=0;" parent="1" source="3FhvJwbir3W2ildQRlmO-4" target="3FhvJwbir3W2ildQRlmO-27" edge="1">
          <mxGeometry width="160" relative="1" as="geometry">
            <mxPoint x="667" y="320" as="sourcePoint" />
            <mxPoint x="827" y="320" as="targetPoint" />
          </mxGeometry>
        </mxCell>
        <mxCell id="voO-R-jOmLPzby_aq_sF-12" value="&amp;lt;&amp;lt;extend&amp;gt;&amp;gt;" style="html=1;verticalAlign=bottom;labelBackgroundColor=none;endArrow=open;endFill=0;dashed=1;rounded=0;exitX=0;exitY=0.5;exitDx=0;exitDy=0;entryX=1;entryY=0.5;entryDx=0;entryDy=0;" parent="1" source="3FhvJwbir3W2ildQRlmO-4" target="3FhvJwbir3W2ildQRlmO-3" edge="1">
          <mxGeometry width="160" relative="1" as="geometry">
            <mxPoint x="460" y="410" as="sourcePoint" />
            <mxPoint x="520" y="410" as="targetPoint" />
            <mxPoint as="offset" />
          </mxGeometry>
        </mxCell>
        <mxCell id="voO-R-jOmLPzby_aq_sF-14" value="Morador" style="shape=umlActor;verticalLabelPosition=bottom;verticalAlign=top;html=1;outlineConnect=0;" parent="1" vertex="1">
          <mxGeometry x="40" y="620" width="50" height="100" as="geometry" />
        </mxCell>
        <mxCell id="voO-R-jOmLPzby_aq_sF-16" value="Divulgar avisos" style="ellipse;whiteSpace=wrap;html=1;fillColor=#fff2cc;strokeColor=default;" parent="1" vertex="1">
          <mxGeometry x="990" y="400" width="180" height="80" as="geometry" />
        </mxCell>
        <mxCell id="voO-R-jOmLPzby_aq_sF-17" value="" style="endArrow=none;html=1;rounded=0;fontSize=8;entryX=0.25;entryY=0.1;entryDx=0;entryDy=0;entryPerimeter=0;" parent="1" source="voO-R-jOmLPzby_aq_sF-16" target="IhfIyA9X6iFTCucicmQ7-1" edge="1">
          <mxGeometry width="50" height="50" relative="1" as="geometry">
            <mxPoint x="1510" y="540" as="sourcePoint" />
            <mxPoint x="1560" y="490" as="targetPoint" />
          </mxGeometry>
        </mxCell>
        <mxCell id="voO-R-jOmLPzby_aq_sF-18" value="Solicitar Manutenção" style="ellipse;whiteSpace=wrap;html=1;fillColor=#f8cecc;strokeColor=default;" parent="1" vertex="1">
          <mxGeometry x="200" y="740" width="180" height="80" as="geometry" />
        </mxCell>
        <mxCell id="voO-R-jOmLPzby_aq_sF-20" value="" style="endArrow=none;html=1;rounded=0;entryX=0;entryY=0.375;entryDx=0;entryDy=0;entryPerimeter=0;exitX=1;exitY=1;exitDx=0;exitDy=0;exitPerimeter=0;" parent="1" source="voO-R-jOmLPzby_aq_sF-14" target="voO-R-jOmLPzby_aq_sF-18" edge="1">
          <mxGeometry width="50" height="50" relative="1" as="geometry">
            <mxPoint x="100" y="680" as="sourcePoint" />
            <mxPoint x="220" y="680" as="targetPoint" />
          </mxGeometry>
        </mxCell>
        <mxCell id="voO-R-jOmLPzby_aq_sF-22" value="Avisar de visitante" style="ellipse;whiteSpace=wrap;html=1;fillColor=#f8cecc;strokeColor=default;" parent="1" vertex="1">
          <mxGeometry x="190" y="550" width="180" height="80" as="geometry" />
        </mxCell>
        <mxCell id="voO-R-jOmLPzby_aq_sF-24" value="" style="endArrow=none;html=1;rounded=0;entryX=0;entryY=0.5;entryDx=0;entryDy=0;exitX=1;exitY=0.3333333333333333;exitDx=0;exitDy=0;exitPerimeter=0;" parent="1" source="voO-R-jOmLPzby_aq_sF-14" target="voO-R-jOmLPzby_aq_sF-22" edge="1">
          <mxGeometry width="50" height="50" relative="1" as="geometry">
            <mxPoint x="100" y="695.9999999999998" as="sourcePoint" />
            <mxPoint x="200" y="760" as="targetPoint" />
          </mxGeometry>
        </mxCell>
        <mxCell id="voO-R-jOmLPzby_aq_sF-26" value="Reservar areas comuns" style="ellipse;whiteSpace=wrap;html=1;fillColor=#f8cecc;strokeColor=default;" parent="1" vertex="1">
          <mxGeometry x="190" y="650" width="180" height="80" as="geometry" />
        </mxCell>
        <mxCell id="voO-R-jOmLPzby_aq_sF-27" value="" style="endArrow=none;html=1;rounded=0;exitX=1;exitY=1;exitDx=0;exitDy=0;exitPerimeter=0;entryX=0.056;entryY=0.25;entryDx=0;entryDy=0;entryPerimeter=0;" parent="1" source="voO-R-jOmLPzby_aq_sF-14" target="voO-R-jOmLPzby_aq_sF-26" edge="1">
          <mxGeometry width="50" height="50" relative="1" as="geometry">
            <mxPoint x="100" y="712" as="sourcePoint" />
            <mxPoint x="200" y="840" as="targetPoint" />
          </mxGeometry>
        </mxCell>
        <mxCell id="voO-R-jOmLPzby_aq_sF-30" value="" style="endArrow=none;html=1;rounded=0;entryX=0;entryY=0.5;entryDx=0;entryDy=0;exitX=1;exitY=1;exitDx=0;exitDy=0;exitPerimeter=0;" parent="1" source="voO-R-jOmLPzby_aq_sF-14" target="voO-R-jOmLPzby_aq_sF-31" edge="1">
          <mxGeometry width="50" height="50" relative="1" as="geometry">
            <mxPoint x="100" y="729.9999999999993" as="sourcePoint" />
            <mxPoint x="210" y="1040" as="targetPoint" />
            <Array as="points">
              <mxPoint x="110" y="940" />
            </Array>
          </mxGeometry>
        </mxCell>
        <mxCell id="voO-R-jOmLPzby_aq_sF-31" value="Realizar pagamento" style="ellipse;whiteSpace=wrap;html=1;fillColor=#f8cecc;strokeColor=default;" parent="1" vertex="1">
          <mxGeometry x="220" y="910" width="180" height="80" as="geometry" />
        </mxCell>
        <mxCell id="voO-R-jOmLPzby_aq_sF-33" value="&lt;font style=&quot;font-size: 16px;&quot;&gt;Gerir apartamentos&lt;/font&gt;" style="ellipse;whiteSpace=wrap;html=1;fillColor=#fff2cc;strokeColor=default;" parent="1" vertex="1">
          <mxGeometry x="980" y="720" width="180" height="80" as="geometry" />
        </mxCell>
        <mxCell id="voO-R-jOmLPzby_aq_sF-34" value="" style="endArrow=none;html=1;rounded=0;entryX=0;entryY=1;entryDx=0;entryDy=0;entryPerimeter=0;" parent="1" source="voO-R-jOmLPzby_aq_sF-33" target="IhfIyA9X6iFTCucicmQ7-1" edge="1">
          <mxGeometry width="50" height="50" relative="1" as="geometry">
            <mxPoint x="1309.999999999994" y="570" as="sourcePoint" />
            <mxPoint x="1600" y="620" as="targetPoint" />
            <Array as="points">
              <mxPoint x="1270" y="760" />
            </Array>
          </mxGeometry>
        </mxCell>
        <mxCell id="voO-R-jOmLPzby_aq_sF-37" style="edgeStyle=orthogonalEdgeStyle;rounded=0;orthogonalLoop=1;jettySize=auto;html=1;entryX=0.556;entryY=1;entryDx=0;entryDy=0;entryPerimeter=0;fontSize=14;" parent="1" source="voO-R-jOmLPzby_aq_sF-35" target="voO-R-jOmLPzby_aq_sF-31" edge="1">
          <mxGeometry relative="1" as="geometry">
            <Array as="points">
              <mxPoint x="225" y="1020" />
              <mxPoint x="320" y="1020" />
            </Array>
          </mxGeometry>
        </mxCell>
        <mxCell id="voO-R-jOmLPzby_aq_sF-35" value="Realizar pagamento&lt;br&gt;de aluguel" style="ellipse;whiteSpace=wrap;html=1;strokeWidth=1;fontSize=14;fillColor=#fad9d5;strokeColor=default;" parent="1" vertex="1">
          <mxGeometry x="150" y="1030" width="150" height="80" as="geometry" />
        </mxCell>
        <mxCell id="voO-R-jOmLPzby_aq_sF-39" style="edgeStyle=orthogonalEdgeStyle;rounded=0;orthogonalLoop=1;jettySize=auto;html=1;fontSize=14;" parent="1" source="voO-R-jOmLPzby_aq_sF-36" edge="1">
          <mxGeometry relative="1" as="geometry">
            <mxPoint x="320" y="990" as="targetPoint" />
            <Array as="points">
              <mxPoint x="435" y="1020" />
              <mxPoint x="320" y="1020" />
            </Array>
          </mxGeometry>
        </mxCell>
        <mxCell id="voO-R-jOmLPzby_aq_sF-36" value="Realizar pagamento&lt;br&gt;de multa" style="ellipse;whiteSpace=wrap;html=1;strokeWidth=1;fontSize=14;fillColor=#fad9d5;strokeColor=default;" parent="1" vertex="1">
          <mxGeometry x="360" y="1030" width="150" height="80" as="geometry" />
        </mxCell>
        <mxCell id="voO-R-jOmLPzby_aq_sF-41" value="Gestão de Documentos" style="ellipse;whiteSpace=wrap;html=1;fillColor=#fff2cc;strokeColor=default;" parent="1" vertex="1">
          <mxGeometry x="980" y="820" width="180" height="80" as="geometry" />
        </mxCell>
        <mxCell id="voO-R-jOmLPzby_aq_sF-42" value="" style="endArrow=none;html=1;rounded=0;exitX=1;exitY=0.5;exitDx=0;exitDy=0;" parent="1" source="voO-R-jOmLPzby_aq_sF-41" edge="1">
          <mxGeometry width="50" height="50" relative="1" as="geometry">
            <mxPoint x="1316.638584613851" y="809.1701769232689" as="sourcePoint" />
            <mxPoint x="1390" y="660" as="targetPoint" />
            <Array as="points">
              <mxPoint x="1310" y="780" />
            </Array>
          </mxGeometry>
        </mxCell>
      </root>
    </mxGraphModel>
  </diagram>
</mxfile>
